<svg xmlns="http://www.w3.org/2000/svg" version="1.1" xmlns:xlink="http://www.w3.org/1999/xlink" width="512" height="512"><svg version="1.1" id="SvgjsSvg1009" xmlns="http://www.w3.org/2000/svg" xmlns:xlink="http://www.w3.org/1999/xlink" x="0px" y="0px" viewBox="0 0 512 512" style="enable-background:new 0 0 512 512;" xml:space="preserve">
<style type="text/css">
	.st0{fill:#2C3E50;}
	.st1{fill:#34495E;}
	.st2{fill:#ECF0F1;}
</style>
<g id="SvgjsG1008">
	<path id="SvgjsPath1007" class="st0" d="M46.5,23.6C20.5,23.6,0,44.9,0,70.1v162.3v47.3v163.1c0,25.2,20.5,46.5,46.5,46.5H256h209.5
		c26,0,46.5-21.3,46.5-46.5V279.6v-47.3V70.1c0-25.2-20.5-46.5-46.5-46.5H256H46.5z"></path>
	<path id="SvgjsPath1006" class="st1" d="M46.5,23.6C20.5,23.6,0,44.1,0,70.1v70.1v70.1v23.6v23.6v23.6v70.1v70.1
		c0,26,20.5,46.5,46.5,46.5H256h209.5c26,0,46.5-20.5,46.5-46.5v-70.1V256v-46.5v-70.1V69.3c0-26-20.5-46.5-46.5-46.5H256H46.5V23.6
		z"></path>
	<path id="SvgjsPath1005" class="st2" d="M70.1,96.1v26l70.1,41l-70.1,41v26l116.6-67L70.1,96.1z M185.9,209.5v23.6h116.6v-23.6H185.9z"></path>
</g>
</svg><style>@media (prefers-color-scheme: light) { :root { filter: none; } }
@media (prefers-color-scheme: dark) { :root { filter: none; } }
</style></svg>